<?xml version="1.0" encoding="UTF-8" standalone="yes"?>
<!DOCTYPE svg PUBLIC "-//W3C//DTD SVG 1.0//EN" "http://www.w3.org/TR/2001/REC-SVG-20010904/DTD/svg10.dtd">
<svg height="1080" width="2906" xmlns="http://www.w3.org/2000/svg" xmlns:svg="http://www.w3.org/2000/svg" xmlns:xlink="http://www.w3.org/1999/xlink">
	<rect fill="white" height="1080" width="2906" x="0" y="0" />
	<radialGradient id="myRadialGradient1" r="65%">
		<stop offset="5%" stop-color="red" />
		<stop offset="95%" stop-color="darkred" />
	</radialGradient>
	<linearGradient gradientTransform="rotate(90)" id="myLinearGradient2" x1="0" x2="1" y1="0" y2="0">
		<stop offset="5%" stop-color="dodgerblue" />
		<stop offset="30%" stop-color="lightskyblue" />
		<stop offset="50%" stop-color="lightskyblue" />
		<stop offset="95%" stop-color="dodgerblue" />
	</linearGradient>
	<linearGradient gradientTransform="rotate(90)" id="myLinearGradient3" x1="0" x2="1" y1="0" y2="0">
		<stop offset="5%" stop-color="mediumseagreen" />
		<stop offset="30%" stop-color="palegreen" />
		<stop offset="50%" stop-color="palegreen" />
		<stop offset="95%" stop-color="mediumseagreen" />
	</linearGradient>
	<linearGradient gradientTransform="rotate(90)" id="myLinearGradient4" x1="0" x2="1" y1="0" y2="0">
		<stop offset="5%" stop-color="hotpink" />
		<stop offset="35%" stop-color="lightpink" />
		<stop offset="50%" stop-color="lightpink" />
		<stop offset="95%" stop-color="hotpink" />
	</linearGradient>
	<linearGradient gradientTransform="rotate(90)" id="myLinearGradientBlack2Grey" x1="0" x2="1" y1="0" y2="0">
		<stop offset="5%" stop-color="grey" />
		<stop offset="35%" stop-color="lightgrey" />
		<stop offset="50%" stop-color="lightgrey" />
		<stop offset="95%" stop-color="grey" />
	</linearGradient>
	<text fill="black" font-family="TimesNewRoman" font-size="22" x="100" y="70">ADCY9(O60503), 1353 aa</text>
	<rect height="30" rx="5" ry="5" style="fill: url(#myLinearGradientBlack2Grey); stroke: black" width="2706" x="100" y="350" />
	<text fill="black" font-family="TimesNewRoman" font-size="12" transform="translate(85,369) rotate(0)" x="0" y="0">N</text>
	<text fill="black" font-family="TimesNewRoman" font-size="12" transform="translate(2810,369) rotate(0)" x="0" y="0">C</text>
	<rect height="10" style="opacity: 0.8; fill: darkcyan; stroke: none" width="2" x="510" y="425" />
	<rect height="10" style="opacity: 0.8; fill: darkcyan; stroke: none" width="2" x="1314" y="425" />
	<rect height="10" style="opacity: 0.8; fill: darkcyan; stroke: none" width="2" x="1318" y="425" />
	<rect height="10" style="opacity: 0.8; fill: darkcyan; stroke: none" width="2" x="2008" y="425" />
	<rect height="10" style="opacity: 0.8; fill: darkcyan; stroke: none" width="2" x="2026" y="425" />
	<rect height="10" style="opacity: 0.8; fill: darkcyan; stroke: none" width="2" x="2616" y="425" />
	<rect height="10" style="opacity: 0.8; fill: darkcyan; stroke: none" width="2" x="2712" y="425" />
	<rect height="10" style="opacity: 0.8; fill: darkorange; stroke: none" width="2" x="896" y="405" />
	<rect height="10" style="opacity: 0.8; fill: darkorange; stroke: none" width="2" x="896" y="405" />
	<rect height="10" style="opacity: 0.8; fill: darkorange; stroke: none" width="2" x="898" y="405" />
	<rect height="10" style="opacity: 0.8; fill: darkorange; stroke: none" width="2" x="984" y="405" />
	<rect height="10" style="opacity: 0.8; fill: darkorange; stroke: none" width="2" x="984" y="405" />
	<rect height="10" style="opacity: 0.8; fill: darkseagreen; stroke: none" width="234" x="100" y="450" />
	<text fill="black" font-family="TimesNewRoman" font-size="10" text-anchor="middle" transform="translate(217,448) rotate(0)" x="0" y="0">Topological domain: Cytoplasmic;status=Potential</text>
	<rect height="10" style="opacity: 0.8; fill: darkseagreen; stroke: none" width="42" x="334" y="470" />
	<text fill="black" font-family="TimesNewRoman" font-size="10" text-anchor="middle" transform="translate(355,468) rotate(0)" x="0" y="0">Transmembrane: Helical;;status=Potential</text>
	<rect height="10" style="opacity: 0.8; fill: darkseagreen; stroke: none" width="6" x="376" y="490" />
	<text fill="black" font-family="TimesNewRoman" font-size="10" text-anchor="middle" transform="translate(379,488) rotate(0)" x="0" y="0">Topological domain: Extracellular;status=Potential</text>
	<rect height="10" style="opacity: 0.8; fill: darkseagreen; stroke: none" width="42" x="382" y="510" />
	<text fill="black" font-family="TimesNewRoman" font-size="10" text-anchor="middle" transform="translate(403,508) rotate(0)" x="0" y="0">Transmembrane: Helical;;status=Potential</text>
	<rect height="10" style="opacity: 0.8; fill: darkseagreen; stroke: none" width="18" x="424" y="530" />
	<text fill="black" font-family="TimesNewRoman" font-size="10" text-anchor="middle" transform="translate(433,528) rotate(0)" x="0" y="0">Topological domain: Cytoplasmic;status=Potential</text>
	<rect height="10" style="opacity: 0.8; fill: darkseagreen; stroke: none" width="42" x="442" y="550" />
	<text fill="black" font-family="TimesNewRoman" font-size="10" text-anchor="middle" transform="translate(463,548) rotate(0)" x="0" y="0">Transmembrane: Helical;;status=Potential</text>
	<rect height="10" style="opacity: 0.8; fill: darkseagreen; stroke: none" width="46" x="484" y="570" />
	<text fill="black" font-family="TimesNewRoman" font-size="10" text-anchor="middle" transform="translate(507,568) rotate(0)" x="0" y="0">Topological domain: Extracellular;status=Potential</text>
	<rect height="10" style="opacity: 0.8; fill: darkseagreen; stroke: none" width="40" x="530" y="590" />
	<text fill="black" font-family="TimesNewRoman" font-size="10" text-anchor="middle" transform="translate(550,588) rotate(0)" x="0" y="0">Transmembrane: Helical;;status=Potential</text>
	<rect height="10" style="opacity: 0.8; fill: darkseagreen; stroke: none" width="12" x="570" y="610" />
	<text fill="black" font-family="TimesNewRoman" font-size="10" text-anchor="middle" transform="translate(576,608) rotate(0)" x="0" y="0">Topological domain: Cytoplasmic;status=Potential</text>
	<rect height="10" style="opacity: 0.8; fill: darkseagreen; stroke: none" width="36" x="582" y="630" />
	<text fill="black" font-family="TimesNewRoman" font-size="10" text-anchor="middle" transform="translate(600,628) rotate(0)" x="0" y="0">Transmembrane: Helical;;status=Potential</text>
	<rect height="10" style="opacity: 0.8; fill: darkseagreen; stroke: none" width="42" x="618" y="650" />
	<text fill="black" font-family="TimesNewRoman" font-size="10" text-anchor="middle" transform="translate(639,648) rotate(0)" x="0" y="0">Topological domain: Extracellular;status=Potential</text>
	<rect height="10" style="opacity: 0.8; fill: darkseagreen; stroke: none" width="42" x="660" y="670" />
	<text fill="black" font-family="TimesNewRoman" font-size="10" text-anchor="middle" transform="translate(681,668) rotate(0)" x="0" y="0">Transmembrane: Helical;;status=Potential</text>
	<rect height="10" style="opacity: 0.8; fill: darkseagreen; stroke: none" width="970" x="702" y="690" />
	<text fill="black" font-family="TimesNewRoman" font-size="10" text-anchor="middle" transform="translate(1187,688) rotate(0)" x="0" y="0">Topological domain: Cytoplasmic;status=Potential</text>
	<rect height="10" style="opacity: 0.8; fill: darkseagreen; stroke: none" width="256" x="886" y="710" />
	<text fill="black" font-family="TimesNewRoman" font-size="10" text-anchor="middle" transform="translate(1014,708) rotate(0)" x="0" y="0">Domain: Guanylate cyclase 1</text>
	<rect height="10" style="opacity: 0.8; fill: darkseagreen; stroke: none" width="42" x="1672" y="730" />
	<text fill="black" font-family="TimesNewRoman" font-size="10" text-anchor="middle" transform="translate(1693,728) rotate(0)" x="0" y="0">Transmembrane: Helical;;status=Potential</text>
	<rect height="10" style="opacity: 0.8; fill: darkseagreen; stroke: none" width="22" x="1714" y="750" />
	<text fill="black" font-family="TimesNewRoman" font-size="10" text-anchor="middle" transform="translate(1725,748) rotate(0)" x="0" y="0">Topological domain: Extracellular;status=Potential</text>
	<rect height="10" style="opacity: 0.8; fill: darkseagreen; stroke: none" width="42" x="1736" y="770" />
	<text fill="black" font-family="TimesNewRoman" font-size="10" text-anchor="middle" transform="translate(1757,768) rotate(0)" x="0" y="0">Transmembrane: Helical;;status=Potential</text>
	<rect height="10" style="opacity: 0.8; fill: darkseagreen; stroke: none" width="56" x="1778" y="790" />
	<text fill="black" font-family="TimesNewRoman" font-size="10" text-anchor="middle" transform="translate(1806,788) rotate(0)" x="0" y="0">Topological domain: Cytoplasmic;status=Potential</text>
	<rect height="10" style="opacity: 0.8; fill: darkseagreen; stroke: none" width="42" x="1834" y="810" />
	<text fill="black" font-family="TimesNewRoman" font-size="10" text-anchor="middle" transform="translate(1855,808) rotate(0)" x="0" y="0">Transmembrane: Helical;;status=Potential</text>
	<rect height="10" style="opacity: 0.8; fill: darkseagreen; stroke: none" width="6" x="1876" y="830" />
	<text fill="black" font-family="TimesNewRoman" font-size="10" text-anchor="middle" transform="translate(1879,828) rotate(0)" x="0" y="0">Topological domain: Extracellular;status=Potential</text>
	<rect height="10" style="opacity: 0.8; fill: darkseagreen; stroke: none" width="42" x="1882" y="850" />
	<text fill="black" font-family="TimesNewRoman" font-size="10" text-anchor="middle" transform="translate(1903,848) rotate(0)" x="0" y="0">Transmembrane: Helical;;status=Potential</text>
	<rect height="10" style="opacity: 0.8; fill: darkseagreen; stroke: none" width="16" x="1924" y="870" />
	<text fill="black" font-family="TimesNewRoman" font-size="10" text-anchor="middle" transform="translate(1932,868) rotate(0)" x="0" y="0">Topological domain: Cytoplasmic;status=Potential</text>
	<rect height="10" style="opacity: 0.8; fill: darkseagreen; stroke: none" width="42" x="1940" y="890" />
	<text fill="black" font-family="TimesNewRoman" font-size="10" text-anchor="middle" transform="translate(1961,888) rotate(0)" x="0" y="0">Transmembrane: Helical;;status=Potential</text>
	<rect height="10" style="opacity: 0.8; fill: darkseagreen; stroke: none" width="68" x="1982" y="910" />
	<text fill="black" font-family="TimesNewRoman" font-size="10" text-anchor="middle" transform="translate(2016,908) rotate(0)" x="0" y="0">Topological domain: Extracellular;status=Potential</text>
	<rect height="10" style="opacity: 0.8; fill: darkseagreen; stroke: none" width="42" x="2050" y="930" />
	<text fill="black" font-family="TimesNewRoman" font-size="10" text-anchor="middle" transform="translate(2071,928) rotate(0)" x="0" y="0">Transmembrane: Helical;;status=Potential</text>
	<rect height="10" style="opacity: 0.8; fill: darkseagreen; stroke: none" width="714" x="2092" y="950" />
	<text fill="black" font-family="TimesNewRoman" font-size="10" text-anchor="middle" transform="translate(2449,948) rotate(0)" x="0" y="0">Topological domain: Cytoplasmic;status=Potential</text>
	<rect height="10" style="opacity: 0.8; fill: darkseagreen; stroke: none" width="282" x="2214" y="970" />
	<text fill="black" font-family="TimesNewRoman" font-size="10" text-anchor="middle" transform="translate(2355,968) rotate(0)" x="0" y="0">Domain: Guanylate cyclase 2</text>
	<path d="M 0,0 L -5,-15 5,-15 Z" style="fill: darkred" transform="translate(805,350) scale(1,1)" />
	<text fill="black" font-family="TimesNewRoman" font-size="12" transform="translate(811,335) rotate(0)" x="0" y="0">E353K</text>
	<rect fill="none" height="100" stroke="black" stroke-width="1.5" width="225" x="2581" y="50" />
	<rect fill="url(#myLinearGradient2)" height="30" rx="5" ry="5" width="30" x="2586" y="55" />
	<text fill="black" font-family="TimesNewRoman" font-size="12" x="2618" y="75">Helix</text>
	<rect fill="url(#myLinearGradient3)" height="30" rx="5" ry="5" width="30" x="2648" y="55" />
	<text fill="black" font-family="TimesNewRoman" font-size="12" x="2680" y="75">Beta strand</text>
	<rect fill="url(#myLinearGradient4)" height="30" rx="5" ry="5" width="30" x="2747" y="55" />
	<text fill="black" font-family="TimesNewRoman" font-size="12" x="2779" y="75">Turn</text>
	<rect fill="darkorange" height="30" stroke="none" width="10" x="2586" y="90" />
	<text fill="black" font-family="TimesNewRoman" font-size="12" x="2598" y="110">sites</text>
	<rect fill="darkcyan" height="30" stroke="none" width="10" x="2630" y="90" />
	<text fill="black" font-family="TimesNewRoman" font-size="12" x="2642" y="110">aa_mod</text>
	<rect fill="darkseagreen" height="30" stroke="none" width="10" x="2683" y="90" />
	<text fill="black" font-family="TimesNewRoman" font-size="12" x="2696" y="110">region</text>
	<path d="M 0,0 L -5,-15 5,-15 Z" style="fill: darkred" transform="translate(2591,142) scale(1,1)" />
	<text fill="black" font-family="TimesNewRoman" font-size="12" x="2598" y="137">sample(s)</text>
	<path d="M 0,0 L -5,-15 5,-15 Z" style="fill: lightgrey" transform="translate(2658,142) scale(1,1)" />
	<text fill="black" font-family="TimesNewRoman" font-size="12" x="2665" y="137">COSMIC</text>
	<!-- 
	Generated using the Perl SVG Module V2.52
	by Ronan Oger
	Info: http://www.roitsystems.com/
 -->
</svg>