<?xml version="1.0" encoding="UTF-8" standalone="yes"?>
<!DOCTYPE svg PUBLIC "-//W3C//DTD SVG 1.0//EN" "http://www.w3.org/TR/2001/REC-SVG-20010904/DTD/svg10.dtd">
<svg height="880" width="1386" xmlns="http://www.w3.org/2000/svg" xmlns:svg="http://www.w3.org/2000/svg" xmlns:xlink="http://www.w3.org/1999/xlink">
	<rect fill="white" height="880" width="1386" x="0" y="0" />
	<radialGradient id="myRadialGradient1" r="65%">
		<stop offset="5%" stop-color="red" />
		<stop offset="95%" stop-color="darkred" />
	</radialGradient>
	<linearGradient gradientTransform="rotate(90)" id="myLinearGradient2" x1="0" x2="1" y1="0" y2="0">
		<stop offset="5%" stop-color="dodgerblue" />
		<stop offset="30%" stop-color="lightskyblue" />
		<stop offset="50%" stop-color="lightskyblue" />
		<stop offset="95%" stop-color="dodgerblue" />
	</linearGradient>
	<linearGradient gradientTransform="rotate(90)" id="myLinearGradient3" x1="0" x2="1" y1="0" y2="0">
		<stop offset="5%" stop-color="mediumseagreen" />
		<stop offset="30%" stop-color="palegreen" />
		<stop offset="50%" stop-color="palegreen" />
		<stop offset="95%" stop-color="mediumseagreen" />
	</linearGradient>
	<linearGradient gradientTransform="rotate(90)" id="myLinearGradient4" x1="0" x2="1" y1="0" y2="0">
		<stop offset="5%" stop-color="hotpink" />
		<stop offset="35%" stop-color="lightpink" />
		<stop offset="50%" stop-color="lightpink" />
		<stop offset="95%" stop-color="hotpink" />
	</linearGradient>
	<linearGradient gradientTransform="rotate(90)" id="myLinearGradientBlack2Grey" x1="0" x2="1" y1="0" y2="0">
		<stop offset="5%" stop-color="grey" />
		<stop offset="35%" stop-color="lightgrey" />
		<stop offset="50%" stop-color="lightgrey" />
		<stop offset="95%" stop-color="grey" />
	</linearGradient>
	<text fill="black" font-family="TimesNewRoman" font-size="22" x="100" y="70">LINGO4(Q6UY18), 593 aa</text>
	<rect height="30" rx="5" ry="5" style="fill: url(#myLinearGradientBlack2Grey); stroke: black" width="1186" x="100" y="350" />
	<text fill="black" font-family="TimesNewRoman" font-size="12" transform="translate(85,369) rotate(0)" x="0" y="0">N</text>
	<text fill="black" font-family="TimesNewRoman" font-size="12" transform="translate(1290,369) rotate(0)" x="0" y="0">C</text>
	<rect height="10" style="opacity: 0.8; fill: darkcyan; stroke: none" width="2" x="480" y="425" />
	<rect height="10" style="opacity: 0.8; fill: darkcyan; stroke: none" width="2" x="604" y="425" />
	<rect height="10" style="opacity: 0.8; fill: darkcyan; stroke: none" width="2" x="624" y="425" />
	<rect height="10" style="opacity: 0.8; fill: darkcyan; stroke: none" width="2" x="968" y="425" />
	<rect height="10" style="opacity: 0.8; fill: darkcyan; stroke: none" width="2" x="1068" y="425" />
	<rect height="10" style="opacity: 0.8; fill: darkcyan; stroke: none" width="2" x="1082" y="425" />
	<rect height="10" style="opacity: 0.8; fill: darkcyan; stroke: none" width="2" x="1114" y="425" />
	<rect height="10" style="opacity: 0.8; fill: darkcyan; stroke: none" width="2" x="1128" y="425" />
	<rect height="10" style="opacity: 0.8; fill: darkseagreen; stroke: none" width="64" x="156" y="450" />
	<text fill="black" font-family="TimesNewRoman" font-size="10" text-anchor="middle" transform="translate(188,448) rotate(0)" x="0" y="0">Domain: LRRNT</text>
	<rect height="10" style="opacity: 0.8; fill: darkseagreen; stroke: none" width="1010" x="156" y="470" />
	<text fill="black" font-family="TimesNewRoman" font-size="10" text-anchor="middle" transform="translate(661,468) rotate(0)" x="0" y="0">Topological domain: Extracellular;status=Potential</text>
	<rect height="10" style="opacity: 0.8; fill: darkseagreen; stroke: none" width="44" x="220" y="490" />
	<text fill="black" font-family="TimesNewRoman" font-size="10" text-anchor="middle" transform="translate(242,488) rotate(0)" x="0" y="0">Repeat: LRR 1</text>
	<rect height="10" style="opacity: 0.8; fill: darkseagreen; stroke: none" width="44" x="268" y="510" />
	<text fill="black" font-family="TimesNewRoman" font-size="10" text-anchor="middle" transform="translate(290,508) rotate(0)" x="0" y="0">Repeat: LRR 2</text>
	<rect height="10" style="opacity: 0.8; fill: darkseagreen; stroke: none" width="44" x="316" y="530" />
	<text fill="black" font-family="TimesNewRoman" font-size="10" text-anchor="middle" transform="translate(338,528) rotate(0)" x="0" y="0">Repeat: LRR 3</text>
	<rect height="10" style="opacity: 0.8; fill: darkseagreen; stroke: none" width="44" x="364" y="550" />
	<text fill="black" font-family="TimesNewRoman" font-size="10" text-anchor="middle" transform="translate(386,548) rotate(0)" x="0" y="0">Repeat: LRR 4</text>
	<rect height="10" style="opacity: 0.8; fill: darkseagreen; stroke: none" width="44" x="412" y="570" />
	<text fill="black" font-family="TimesNewRoman" font-size="10" text-anchor="middle" transform="translate(434,568) rotate(0)" x="0" y="0">Repeat: LRR 5</text>
	<rect height="10" style="opacity: 0.8; fill: darkseagreen; stroke: none" width="44" x="460" y="590" />
	<text fill="black" font-family="TimesNewRoman" font-size="10" text-anchor="middle" transform="translate(482,588) rotate(0)" x="0" y="0">Repeat: LRR 6</text>
	<rect height="10" style="opacity: 0.8; fill: darkseagreen; stroke: none" width="44" x="518" y="610" />
	<text fill="black" font-family="TimesNewRoman" font-size="10" text-anchor="middle" transform="translate(540,608) rotate(0)" x="0" y="0">Repeat: LRR 7</text>
	<rect height="10" style="opacity: 0.8; fill: darkseagreen; stroke: none" width="44" x="604" y="630" />
	<text fill="black" font-family="TimesNewRoman" font-size="10" text-anchor="middle" transform="translate(626,628) rotate(0)" x="0" y="0">Repeat: LRR 8</text>
	<rect height="10" style="opacity: 0.8; fill: darkseagreen; stroke: none" width="44" x="652" y="650" />
	<text fill="black" font-family="TimesNewRoman" font-size="10" text-anchor="middle" transform="translate(674,648) rotate(0)" x="0" y="0">Repeat: LRR 9</text>
	<rect height="10" style="opacity: 0.8; fill: darkseagreen; stroke: none" width="44" x="700" y="670" />
	<text fill="black" font-family="TimesNewRoman" font-size="10" text-anchor="middle" transform="translate(722,668) rotate(0)" x="0" y="0">Repeat: LRR 10</text>
	<rect height="10" style="opacity: 0.8; fill: darkseagreen; stroke: none" width="44" x="748" y="690" />
	<text fill="black" font-family="TimesNewRoman" font-size="10" text-anchor="middle" transform="translate(770,688) rotate(0)" x="0" y="0">Repeat: LRR 11</text>
	<rect height="10" style="opacity: 0.8; fill: darkseagreen; stroke: none" width="110" x="814" y="710" />
	<text fill="black" font-family="TimesNewRoman" font-size="10" text-anchor="middle" transform="translate(869,708) rotate(0)" x="0" y="0">Domain: LRRCT</text>
	<rect height="10" style="opacity: 0.8; fill: darkseagreen; stroke: none" width="182" x="922" y="730" />
	<text fill="black" font-family="TimesNewRoman" font-size="10" text-anchor="middle" transform="translate(1013,728) rotate(0)" x="0" y="0">Domain: Ig-like C2-type</text>
	<rect height="10" style="opacity: 0.8; fill: darkseagreen; stroke: none" width="42" x="1166" y="750" />
	<text fill="black" font-family="TimesNewRoman" font-size="10" text-anchor="middle" transform="translate(1187,748) rotate(0)" x="0" y="0">Transmembrane: Helical;;status=Potential</text>
	<rect height="10" style="opacity: 0.8; fill: darkseagreen; stroke: none" width="78" x="1208" y="770" />
	<text fill="black" font-family="TimesNewRoman" font-size="10" text-anchor="middle" transform="translate(1247,768) rotate(0)" x="0" y="0">Topological domain: Cytoplasmic;status=Potential</text>
	<path d="M 0,0 L -5,-15 5,-15 Z" style="fill: darkred" transform="translate(507,350) scale(1,1)" />
	<text fill="black" font-family="TimesNewRoman" font-size="12" transform="translate(513,335) rotate(0)" x="0" y="0">P204L</text>
	<rect fill="none" height="100" stroke="black" stroke-width="1.5" width="225" x="1061" y="50" />
	<rect fill="url(#myLinearGradient2)" height="30" rx="5" ry="5" width="30" x="1066" y="55" />
	<text fill="black" font-family="TimesNewRoman" font-size="12" x="1098" y="75">Helix</text>
	<rect fill="url(#myLinearGradient3)" height="30" rx="5" ry="5" width="30" x="1128" y="55" />
	<text fill="black" font-family="TimesNewRoman" font-size="12" x="1160" y="75">Beta strand</text>
	<rect fill="url(#myLinearGradient4)" height="30" rx="5" ry="5" width="30" x="1227" y="55" />
	<text fill="black" font-family="TimesNewRoman" font-size="12" x="1259" y="75">Turn</text>
	<rect fill="darkorange" height="30" stroke="none" width="10" x="1066" y="90" />
	<text fill="black" font-family="TimesNewRoman" font-size="12" x="1078" y="110">sites</text>
	<rect fill="darkcyan" height="30" stroke="none" width="10" x="1110" y="90" />
	<text fill="black" font-family="TimesNewRoman" font-size="12" x="1122" y="110">aa_mod</text>
	<rect fill="darkseagreen" height="30" stroke="none" width="10" x="1163" y="90" />
	<text fill="black" font-family="TimesNewRoman" font-size="12" x="1176" y="110">region</text>
	<path d="M 0,0 L -5,-15 5,-15 Z" style="fill: darkred" transform="translate(1071,142) scale(1,1)" />
	<text fill="black" font-family="TimesNewRoman" font-size="12" x="1078" y="137">sample(s)</text>
	<path d="M 0,0 L -5,-15 5,-15 Z" style="fill: lightgrey" transform="translate(1138,142) scale(1,1)" />
	<text fill="black" font-family="TimesNewRoman" font-size="12" x="1145" y="137">COSMIC</text>
	<!-- 
	Generated using the Perl SVG Module V2.52
	by Ronan Oger
	Info: http://www.roitsystems.com/
 -->
</svg>