<?xml version="1.0" encoding="UTF-8" standalone="yes"?>
<!DOCTYPE svg PUBLIC "-//W3C//DTD SVG 1.0//EN" "http://www.w3.org/TR/2001/REC-SVG-20010904/DTD/svg10.dtd">
<svg height="840" width="1000" xmlns="http://www.w3.org/2000/svg" xmlns:svg="http://www.w3.org/2000/svg" xmlns:xlink="http://www.w3.org/1999/xlink">
	<rect fill="white" height="840" width="1000" x="0" y="0" />
	<radialGradient id="myRadialGradient1" r="65%">
		<stop offset="5%" stop-color="red" />
		<stop offset="95%" stop-color="darkred" />
	</radialGradient>
	<linearGradient gradientTransform="rotate(90)" id="myLinearGradient2" x1="0" x2="1" y1="0" y2="0">
		<stop offset="5%" stop-color="dodgerblue" />
		<stop offset="30%" stop-color="lightskyblue" />
		<stop offset="50%" stop-color="lightskyblue" />
		<stop offset="95%" stop-color="dodgerblue" />
	</linearGradient>
	<linearGradient gradientTransform="rotate(90)" id="myLinearGradient3" x1="0" x2="1" y1="0" y2="0">
		<stop offset="5%" stop-color="mediumseagreen" />
		<stop offset="30%" stop-color="palegreen" />
		<stop offset="50%" stop-color="palegreen" />
		<stop offset="95%" stop-color="mediumseagreen" />
	</linearGradient>
	<linearGradient gradientTransform="rotate(90)" id="myLinearGradient4" x1="0" x2="1" y1="0" y2="0">
		<stop offset="5%" stop-color="hotpink" />
		<stop offset="35%" stop-color="lightpink" />
		<stop offset="50%" stop-color="lightpink" />
		<stop offset="95%" stop-color="hotpink" />
	</linearGradient>
	<linearGradient gradientTransform="rotate(90)" id="myLinearGradientBlack2Grey" x1="0" x2="1" y1="0" y2="0">
		<stop offset="5%" stop-color="grey" />
		<stop offset="35%" stop-color="lightgrey" />
		<stop offset="50%" stop-color="lightgrey" />
		<stop offset="95%" stop-color="grey" />
	</linearGradient>
	<text fill="black" font-family="TimesNewRoman" font-size="22" x="100" y="70">OPRM1(P35372), 400 aa</text>
	<rect height="30" rx="5" ry="5" style="fill: url(#myLinearGradientBlack2Grey); stroke: black" width="800" x="100" y="350" />
	<text fill="black" font-family="TimesNewRoman" font-size="12" transform="translate(85,369) rotate(0)" x="0" y="0">N</text>
	<text fill="black" font-family="TimesNewRoman" font-size="12" transform="translate(904,369) rotate(0)" x="0" y="0">C</text>
	<rect height="10" style="opacity: 0.8; fill: darkcyan; stroke: none" width="2" x="116" y="425" />
	<rect height="10" style="opacity: 0.8; fill: darkcyan; stroke: none" width="2" x="122" y="425" />
	<rect height="10" style="opacity: 0.8; fill: darkcyan; stroke: none" width="2" x="164" y="425" />
	<rect height="10" style="opacity: 0.8; fill: darkcyan; stroke: none" width="2" x="178" y="425" />
	<rect height="10" style="opacity: 0.8; fill: darkcyan; stroke: none" width="2" x="194" y="425" />
	<rect height="10" style="opacity: 0.8; fill: darkcyan; stroke: none" width="2" x="382" y="425" />
	<rect height="10" style="opacity: 0.8; fill: darkcyan; stroke: none" width="2" x="538" y="425" />
	<rect height="10" style="opacity: 0.8; fill: darkcyan; stroke: none" width="2" x="434" y="425" />
	<rect height="10" style="opacity: 0.8; fill: darkcyan; stroke: none" width="2" x="804" y="425" />
	<rect height="10" style="opacity: 0.8; fill: darkcyan; stroke: none" width="2" x="828" y="425" />
	<rect height="10" style="opacity: 0.8; fill: darkcyan; stroke: none" width="2" x="842" y="425" />
	<rect height="10" style="opacity: 0.8; fill: darkcyan; stroke: none" width="2" x="852" y="425" />
	<rect height="10" style="opacity: 0.8; fill: darkseagreen; stroke: none" width="132" x="100" y="450" />
	<text fill="black" font-family="TimesNewRoman" font-size="10" text-anchor="middle" transform="translate(166,448) rotate(0)" x="0" y="0">Topological domain: Extracellular;status=Potential</text>
	<rect height="10" style="opacity: 0.8; fill: darkseagreen; stroke: none" width="60" x="232" y="470" />
	<text fill="black" font-family="TimesNewRoman" font-size="10" text-anchor="middle" transform="translate(262,468) rotate(0)" x="0" y="0">Transmembrane: Helical; Name=1;;status=Potential</text>
	<rect height="10" style="opacity: 0.8; fill: darkseagreen; stroke: none" width="18" x="292" y="490" />
	<text fill="black" font-family="TimesNewRoman" font-size="10" text-anchor="middle" transform="translate(301,488) rotate(0)" x="0" y="0">Topological domain: Cytoplasmic;status=Potential</text>
	<rect height="10" style="opacity: 0.8; fill: darkseagreen; stroke: none" width="36" x="310" y="510" />
	<text fill="black" font-family="TimesNewRoman" font-size="10" text-anchor="middle" transform="translate(328,508) rotate(0)" x="0" y="0">Transmembrane: Helical; Name=2;;status=Potential</text>
	<rect height="10" style="opacity: 0.8; fill: darkseagreen; stroke: none" width="44" x="346" y="530" />
	<text fill="black" font-family="TimesNewRoman" font-size="10" text-anchor="middle" transform="translate(368,528) rotate(0)" x="0" y="0">Topological domain: Extracellular;status=Potential</text>
	<rect height="10" style="opacity: 0.8; fill: darkseagreen; stroke: none" width="40" x="390" y="550" />
	<text fill="black" font-family="TimesNewRoman" font-size="10" text-anchor="middle" transform="translate(410,548) rotate(0)" x="0" y="0">Transmembrane: Helical; Name=3;;status=Potential</text>
	<rect height="10" style="opacity: 0.8; fill: darkseagreen; stroke: none" width="60" x="430" y="570" />
	<text fill="black" font-family="TimesNewRoman" font-size="10" text-anchor="middle" transform="translate(460,568) rotate(0)" x="0" y="0">Topological domain: Cytoplasmic;status=Potential</text>
	<rect height="10" style="opacity: 0.8; fill: darkseagreen; stroke: none" width="32" x="490" y="590" />
	<text fill="black" font-family="TimesNewRoman" font-size="10" text-anchor="middle" transform="translate(506,588) rotate(0)" x="0" y="0">Transmembrane: Helical; Name=4;;status=Potential</text>
	<rect height="10" style="opacity: 0.8; fill: darkseagreen; stroke: none" width="50" x="522" y="610" />
	<text fill="black" font-family="TimesNewRoman" font-size="10" text-anchor="middle" transform="translate(547,608) rotate(0)" x="0" y="0">Topological domain: Extracellular;status=Potential</text>
	<rect height="10" style="opacity: 0.8; fill: darkseagreen; stroke: none" width="46" x="572" y="630" />
	<text fill="black" font-family="TimesNewRoman" font-size="10" text-anchor="middle" transform="translate(595,628) rotate(0)" x="0" y="0">Transmembrane: Helical; Name=5;;status=Potential</text>
	<rect height="10" style="opacity: 0.8; fill: darkseagreen; stroke: none" width="46" x="618" y="650" />
	<text fill="black" font-family="TimesNewRoman" font-size="10" text-anchor="middle" transform="translate(641,648) rotate(0)" x="0" y="0">Topological domain: Cytoplasmic;status=Potential</text>
	<rect height="10" style="opacity: 0.8; fill: darkseagreen; stroke: none" width="46" x="664" y="670" />
	<text fill="black" font-family="TimesNewRoman" font-size="10" text-anchor="middle" transform="translate(687,668) rotate(0)" x="0" y="0">Transmembrane: Helical; Name=6;;status=Potential</text>
	<rect height="10" style="opacity: 0.8; fill: darkseagreen; stroke: none" width="16" x="710" y="690" />
	<text fill="black" font-family="TimesNewRoman" font-size="10" text-anchor="middle" transform="translate(718,688) rotate(0)" x="0" y="0">Topological domain: Extracellular;status=Potential</text>
	<rect height="10" style="opacity: 0.8; fill: darkseagreen; stroke: none" width="34" x="726" y="710" />
	<text fill="black" font-family="TimesNewRoman" font-size="10" text-anchor="middle" transform="translate(743,708) rotate(0)" x="0" y="0">Transmembrane: Helical; Name=7;;status=Potential</text>
	<rect height="10" style="opacity: 0.8; fill: darkseagreen; stroke: none" width="140" x="760" y="730" />
	<text fill="black" font-family="TimesNewRoman" font-size="10" text-anchor="middle" transform="translate(830,728) rotate(0)" x="0" y="0">Topological domain: Cytoplasmic;status=Potential</text>
	<path d="M 0,0 L -5,-15 5,-15 Z" style="fill: darkred" transform="translate(907,350) scale(1,1)" />
	<text fill="black" font-family="TimesNewRoman" font-size="12" transform="translate(913,335) rotate(0)" x="0" y="0">C404F</text>
	<rect fill="none" height="100" stroke="black" stroke-width="1.5" width="225" x="675" y="50" />
	<rect fill="url(#myLinearGradient2)" height="30" rx="5" ry="5" width="30" x="680" y="55" />
	<text fill="black" font-family="TimesNewRoman" font-size="12" x="712" y="75">Helix</text>
	<rect fill="url(#myLinearGradient3)" height="30" rx="5" ry="5" width="30" x="742" y="55" />
	<text fill="black" font-family="TimesNewRoman" font-size="12" x="774" y="75">Beta strand</text>
	<rect fill="url(#myLinearGradient4)" height="30" rx="5" ry="5" width="30" x="841" y="55" />
	<text fill="black" font-family="TimesNewRoman" font-size="12" x="873" y="75">Turn</text>
	<rect fill="darkorange" height="30" stroke="none" width="10" x="680" y="90" />
	<text fill="black" font-family="TimesNewRoman" font-size="12" x="692" y="110">sites</text>
	<rect fill="darkcyan" height="30" stroke="none" width="10" x="724" y="90" />
	<text fill="black" font-family="TimesNewRoman" font-size="12" x="736" y="110">aa_mod</text>
	<rect fill="darkseagreen" height="30" stroke="none" width="10" x="777" y="90" />
	<text fill="black" font-family="TimesNewRoman" font-size="12" x="790" y="110">region</text>
	<path d="M 0,0 L -5,-15 5,-15 Z" style="fill: darkred" transform="translate(685,142) scale(1,1)" />
	<text fill="black" font-family="TimesNewRoman" font-size="12" x="692" y="137">sample(s)</text>
	<path d="M 0,0 L -5,-15 5,-15 Z" style="fill: lightgrey" transform="translate(752,142) scale(1,1)" />
	<text fill="black" font-family="TimesNewRoman" font-size="12" x="759" y="137">COSMIC</text>
	<!-- 
	Generated using the Perl SVG Module V2.52
	by Ronan Oger
	Info: http://www.roitsystems.com/
 -->
</svg>