<?xml version="1.0" encoding="UTF-8" standalone="yes"?>
<!DOCTYPE svg PUBLIC "-//W3C//DTD SVG 1.0//EN" "http://www.w3.org/TR/2001/REC-SVG-20010904/DTD/svg10.dtd">
<svg height="500" width="650" xmlns="http://www.w3.org/2000/svg" xmlns:svg="http://www.w3.org/2000/svg" xmlns:xlink="http://www.w3.org/1999/xlink">
	<rect fill="white" height="500" width="650" x="0" y="0" />
	<marker id="arrow" markerHeight="6" markerUnits="strokeWidth" markerWidth="8" orient="auto" refX="0" refY="5" viewBox="0 0 10 10">
		<path d="M 0 0 L 15 5 L 0 10 z" />
	</marker>
	<marker id="arrow2" markerHeight="6" markerUnits="strokeWidth" markerWidth="8" orient="auto" refX="0" refY="5" transform="rotate(180)" viewBox="0 0 10 10">
		<path d="M 15 0 L 0 5 L 15 10 z" />
	</marker>
	<radialGradient id="myRadialGradient1" r="65%">
		<stop offset="5%" stop-color="red" />
		<stop offset="95%" stop-color="darkred" />
	</radialGradient>
	<linearGradient gradientTransform="rotate(90)" id="myLinearGradient2" x1="0" x2="1" y1="0" y2="0">
		<stop offset="5%" stop-color="blue" />
		<stop offset="50%" stop-color="lightskyblue" />
		<stop offset="95%" stop-color="blue" />
	</linearGradient>
	<linearGradient gradientTransform="rotate(90)" id="myLinearGradient3" x1="0" x2="1" y1="0" y2="0">
		<stop offset="5%" stop-color="green" />
		<stop offset="50%" stop-color="lightgreen" />
		<stop offset="95%" stop-color="green" />
	</linearGradient>
	<linearGradient gradientTransform="rotate(90)" id="myLinearGradient4" x1="0" x2="1" y1="0" y2="0">
		<stop offset="5%" stop-color="deeppink" />
		<stop offset="50%" stop-color="lightpink" />
		<stop offset="95%" stop-color="deeppink" />
	</linearGradient>
	<rect height="30" style="fill: hotpink; stroke: black" width="12.2" x="20" y="250" />
	<rect height="30" style="fill: rgb(97,199,199); stroke: black" width="13" x="32.2" y="250" />
	<rect height="30" style="fill: hotpink; stroke: black" width="24.4" x="45.2" y="250" />
	<rect height="30" style="fill: rgb(97,199,199); stroke: black" width="40.8" x="69.6" y="250" />
	<rect height="30" style="fill: lightgreen; stroke: black" width="8.6" x="110.4" y="250" />
	<rect height="30" style="fill: rgb(97,199,199); stroke: black" width="1.8" x="119" y="250" />
	<rect height="30" style="fill: lightgreen; stroke: black" width="8.6" x="120.8" y="250" />
	<rect height="30" style="fill: lightgreen; stroke: black" width="8.8" x="129.4" y="250" />
	<rect height="30" style="fill: lightgreen; stroke: black" width="9.4" x="138.2" y="250" />
	<rect height="30" style="fill: lightgreen; stroke: black" width="9" x="147.6" y="250" />
	<rect height="30" style="fill: lightgreen; stroke: black" width="8.4" x="156.6" y="250" />
	<rect height="30" style="fill: lightgreen; stroke: black" width="8.4" x="165" y="250" />
	<rect height="30" style="fill: rgb(97,199,199); stroke: black" width="38.4" x="173.4" y="250" />
	<rect height="30" style="fill: rgb(233,150,122); stroke: black" width="75.6" x="211.8" y="250" />
	<rect height="30" style="fill: rgb(97,199,199); stroke: black" width="105.6" x="287.4" y="250" />
	<rect height="30" style="fill: rgb(233,150,122); stroke: black" width="5.6" x="393" y="250" />
	<rect height="30" style="fill: rgb(97,199,199); stroke: black" width="181.8" x="398.6" y="250" />
	<rect height="30" style="fill: red; stroke: black" width="4" x="580.4" y="250" />
	<rect height="30" style="fill: rgb(97,199,199); stroke: black" width="6.8" x="584.4" y="250" />
	<rect height="30" style="fill: red; stroke: black" width="3" x="591.2" y="250" />
	<line style="stroke: black" x1="20" x2="20" y1="280" y2="292" />
	<text fill="black" font-family="TimesNewRoman" font-size="14" stroke-width="1.5" text-anchor="middle" x="20" y="304">0</text>
	<line style="stroke: black" x1="100" x2="100" y1="280" y2="292" />
	<text fill="black" font-family="TimesNewRoman" font-size="14" stroke-width="1.5" text-anchor="middle" x="100" y="304">400</text>
	<line style="stroke: black" x1="180" x2="180" y1="280" y2="292" />
	<text fill="black" font-family="TimesNewRoman" font-size="14" stroke-width="1.5" text-anchor="middle" x="180" y="304">800</text>
	<line style="stroke: black" x1="260" x2="260" y1="280" y2="292" />
	<text fill="black" font-family="TimesNewRoman" font-size="14" stroke-width="1.5" text-anchor="middle" x="260" y="304">1200</text>
	<line style="stroke: black" x1="340" x2="340" y1="280" y2="292" />
	<text fill="black" font-family="TimesNewRoman" font-size="14" stroke-width="1.5" text-anchor="middle" x="340" y="304">1600</text>
	<line style="stroke: black" x1="420" x2="420" y1="280" y2="292" />
	<text fill="black" font-family="TimesNewRoman" font-size="14" stroke-width="1.5" text-anchor="middle" x="420" y="304">2000</text>
	<line style="stroke: black" x1="500" x2="500" y1="280" y2="292" />
	<text fill="black" font-family="TimesNewRoman" font-size="14" stroke-width="1.5" text-anchor="middle" x="500" y="304">2400</text>
	<line style="stroke: black" x1="580" x2="580" y1="280" y2="292" />
	<text fill="black" font-family="TimesNewRoman" font-size="14" stroke-width="1.5" text-anchor="middle" x="580" y="304">2800</text>
	<line style="stroke: black" x1="48.2" x2="48.2" y1="250" y2="230" />
	<line style="stroke: black" x1="60.4" x2="60.4" y1="250" y2="230" />
	<line style="stroke: black" x1="64.8" x2="64.8" y1="250" y2="230" />
	<line style="stroke: black" x1="146.4" x2="146.4" y1="250" y2="230" />
	<line style="stroke: black" x1="195" x2="195" y1="250" y2="230" />
	<line style="stroke: black" x1="197" x2="197" y1="250" y2="230" />
	<line style="stroke: black" x1="281" x2="281" y1="250" y2="230" />
	<text fill="black" font-family="TimesNewRoman" font-size="12" transform="translate(50.2,88) rotate(-90)" x="0" y="0">S142*</text>
	<path d="M 48.2 230 L 48.2 210 L 48.2 100 " style="fill: none; stroke: black; marker-end: url(#arrow)" />
	<circle cx="48.2" cy="200" r="3" style="fill: red" />
	<text fill="black" font-family="TimesNewRoman" font-size="12" transform="translate(62.4,88) rotate(-90)" x="0" y="0">Q203*</text>
	<path d="M 60.4 230 L 60.4 210 L 60.4 100 " style="fill: none; stroke: black; marker-end: url(#arrow)" />
	<circle cx="60.4" cy="200" r="3" style="fill: red" />
	<text fill="black" font-family="TimesNewRoman" font-size="12" transform="translate(76.8,88) rotate(-90)" x="0" y="0">E225*</text>
	<path d="M 64.8 230 L 74.8 210 L 74.8 100 " style="fill: none; stroke: black; marker-end: url(#arrow)" />
	<circle cx="74.8" cy="200" r="3" style="fill: red" />
	<text fill="black" font-family="TimesNewRoman" font-size="12" transform="translate(148.4,88) rotate(-90)" x="0" y="0">E633*</text>
	<path d="M 146.4 230 L 146.4 210 L 146.4 100 " style="fill: none; stroke: black; marker-end: url(#arrow)" />
	<circle cx="146.4" cy="200" r="3" style="fill: red" />
	<text fill="black" font-family="TimesNewRoman" font-size="12" transform="translate(187,88) rotate(-90)" x="0" y="0">R876*</text>
	<path d="M 195 230 L 185 210 L 185 100 " style="fill: none; stroke: black; marker-end: url(#arrow)" />
	<circle cx="185" cy="200" r="3" style="fill: red" />
	<text fill="black" font-family="TimesNewRoman" font-size="12" transform="translate(209,88) rotate(-90)" x="0" y="0">Q886*</text>
	<path d="M 197 230 L 207 210 L 207 100 " style="fill: none; stroke: black; marker-end: url(#arrow)" />
	<circle cx="207" cy="200" r="3" style="fill: red" />
	<text fill="black" font-family="TimesNewRoman" font-size="12" transform="translate(283,88) rotate(-90)" x="0" y="0">E1306*</text>
	<path d="M 281 230 L 281 210 L 281 100 " style="fill: none; stroke: black; marker-end: url(#arrow)" />
	<circle cx="281" cy="200" r="3" style="fill: red" />
	<line style="stroke: black" x1="60.4" x2="60.4" y1="280" y2="300" />
	<line style="stroke: black" x1="60.4" x2="60.4" y1="280" y2="300" />
	<line style="stroke: black" x1="64.8" x2="64.8" y1="280" y2="300" />
	<line style="stroke: black" x1="146.4" x2="146.4" y1="280" y2="300" />
	<line style="stroke: black" x1="195" x2="195" y1="280" y2="300" />
	<line style="stroke: black" x1="197" x2="197" y1="280" y2="300" />
	<line style="stroke: black" x1="197" x2="197" y1="280" y2="300" />
	<line style="stroke: black" x1="281" x2="281" y1="280" y2="300" />
	<text fill="black" font-family="TimesNewRoman" font-size="12" transform="translate(47.4,487) rotate(-90)" x="0" y="0">*203Q</text>
	<path d="M 60.4 300 L 45.4 320 L 45.4 430 " style="fill: none; stroke: black; marker-end: url(#arrow)" />
	<circle cx="45.4" cy="330" r="3" style="fill: mediumslateblue" />
	<circle cx="45.4" cy="337" r="3" style="fill: mediumslateblue" />
	<circle cx="45.4" cy="344" r="3" style="fill: mediumslateblue" />
	<circle cx="45.4" cy="351" r="3" style="fill: mediumslateblue" />
	<circle cx="45.4" cy="358" r="3" style="fill: mediumslateblue" />
	<circle cx="45.4" cy="365" r="3" style="fill: mediumslateblue" />
	<circle cx="45.4" cy="372" r="3" style="fill: mediumslateblue" />
	<circle cx="45.4" cy="379" r="3" style="fill: mediumslateblue" />
	<circle cx="45.4" cy="386" r="3" style="fill: mediumslateblue" />
	<circle cx="45.4" cy="393" r="3" style="fill: mediumslateblue" />
	<circle cx="45.4" cy="400" r="3" style="fill: mediumslateblue" />
	<text fill="black" font-family="TimesNewRoman" font-size="12" transform="translate(62.4,487) rotate(-90)" x="0" y="0">Q203*</text>
	<path d="M 60.4 300 L 60.4 320 L 60.4 430 " style="fill: none; stroke: black; marker-end: url(#arrow)" />
	<circle cx="60.4" cy="330" r="3" style="fill: red" />
	<circle cx="60.4" cy="337" r="3" style="fill: red" />
	<circle cx="60.4" cy="344" r="3" style="fill: red" />
	<circle cx="60.4" cy="351" r="3" style="fill: red" />
	<circle cx="60.4" cy="358" r="3" style="fill: red" />
	<circle cx="60.4" cy="365" r="3" style="fill: red" />
	<circle cx="60.4" cy="372" r="3" style="fill: red" />
	<circle cx="60.4" cy="379" r="3" style="fill: red" />
	<text fill="black" font-family="TimesNewRoman" font-size="12" transform="translate(76.8,487) rotate(-90)" x="0" y="0">E225*</text>
	<path d="M 64.8 300 L 74.8 320 L 74.8 430 " style="fill: none; stroke: black; marker-end: url(#arrow)" />
	<circle cx="74.8" cy="330" r="3" style="fill: red" />
	<text fill="black" font-family="TimesNewRoman" font-size="12" transform="translate(148.4,487) rotate(-90)" x="0" y="0">*633E</text>
	<path d="M 146.4 300 L 146.4 320 L 146.4 430 " style="fill: none; stroke: black; marker-end: url(#arrow)" />
	<circle cx="146.4" cy="330" r="3" style="fill: mediumslateblue" />
	<circle cx="146.4" cy="337" r="3" style="fill: mediumslateblue" />
	<text fill="black" font-family="TimesNewRoman" font-size="12" transform="translate(184,487) rotate(-90)" x="0" y="0">R876*</text>
	<path d="M 195 300 L 182 320 L 182 430 " style="fill: none; stroke: black; marker-end: url(#arrow)" />
	<circle cx="182" cy="330" r="3" style="fill: red" />
	<circle cx="182" cy="337" r="3" style="fill: red" />
	<circle cx="182" cy="344" r="3" style="fill: red" />
	<text fill="black" font-family="TimesNewRoman" font-size="12" transform="translate(199,487) rotate(-90)" x="0" y="0">*886Q</text>
	<path d="M 197 300 L 197 320 L 197 430 " style="fill: none; stroke: black; marker-end: url(#arrow)" />
	<circle cx="197" cy="330" r="3" style="fill: mediumslateblue" />
	<circle cx="197" cy="337" r="3" style="fill: mediumslateblue" />
	<text fill="black" font-family="TimesNewRoman" font-size="12" transform="translate(212,487) rotate(-90)" x="0" y="0">Q886*</text>
	<path d="M 197 300 L 210 320 L 210 430 " style="fill: none; stroke: black; marker-end: url(#arrow)" />
	<circle cx="210" cy="330" r="3" style="fill: red" />
	<circle cx="210" cy="337" r="3" style="fill: red" />
	<text fill="black" font-family="TimesNewRoman" font-size="12" transform="translate(283,487) rotate(-90)" x="0" y="0">E1306*</text>
	<path d="M 281 300 L 281 320 L 281 430 " style="fill: none; stroke: black; marker-end: url(#arrow)" />
	<circle cx="281" cy="330" r="3" style="fill: red" />
	<rect height="160" style="fill: white; stroke: black; stroke-width: 1.5" width="150" x="440" y="30" />
	<circle cx="470" cy="41" r="3" style="fill: red" />
	<text fill="black" font-family="TimesNewRoman" font-size="12" x="500" y="44">Nonsense</text>
	<circle cx="470" cy="56" r="3" style="fill: mediumslateblue" />
	<text fill="black" font-family="TimesNewRoman" font-size="12" x="500" y="59">Missense</text>
	<rect height="25" style="fill: hotpink; stroke: black" width="40" x="450" y="65" />
	<text fill="black" font-family="TimesNewRoman" font-size="12" x="500" y="80">Coiled coil</text>
	<rect height="25" style="fill: lightgreen; stroke: black" width="40" x="450" y="95" />
	<text fill="black" font-family="TimesNewRoman" font-size="12" x="500" y="110">Repeat</text>
	<rect height="25" style="fill: rgb(233,150,122); stroke: black" width="40" x="450" y="125" />
	<text fill="black" font-family="TimesNewRoman" font-size="12" x="500" y="140">Region[1]</text>
	<rect height="25" style="fill: red; stroke: black" width="40" x="450" y="155" />
	<text fill="black" font-family="TimesNewRoman" font-size="12" x="500" y="170">Motif[2]</text>
	<!-- 
	Generated using the Perl SVG Module V2.50
	by Ronan Oger
	Info: http://www.roitsystems.com/
 -->
</svg>